<svg width="18" height="34" viewBox="0 0 18 34" fill="none" xmlns="http://www.w3.org/2000/svg">
<path d="M14.8332 32.45L13.4332 32.3C12.1665 32.1833 11.0832 31.3333 10.6665 30.1166C9.78162 26.842 9.78162 23.3913 10.6665 20.1166C14.5332 19.3333 17.3332 15.95 17.3332 12C17.3332 8.66665 13.9998 0.333313 13.9998 0.333313H3.99984C3.99984 0.333313 0.666504 8.66665 0.666504 12C0.666112 13.9211 1.32948 15.7833 2.54433 17.2715C3.75918 18.7597 5.4509 19.7824 7.33317 20.1666C8.2165 23.4333 8.2165 26.9 7.33317 30.1666C6.93317 31.3666 5.8665 32.2166 4.6165 32.35L3.1665 32.5C3.1665 32.5 2.33317 32.4666 2.33317 33.6666H15.6665C15.6665 32.4666 14.8332 32.45 14.8332 32.45ZM4.73317 8.66665L6.39984 3.66665H11.5998L13.2665 8.66665H4.73317Z" fill="black"/>
</svg>
