<svg width="33" height="33" viewBox="0 0 33 33" fill="none" xmlns="http://www.w3.org/2000/svg">
<path d="M16.5 8.62981C16.09 8.62981 15.75 8.28981 15.75 7.87981V6.49981C15.75 5.44981 15.3 4.42981 14.52 3.71981C13.73 2.99981 12.71 2.66981 11.63 2.76981C9.83 2.93981 8.25 4.77981 8.25 6.69981V7.66981C8.25 8.07981 7.91 8.41981 7.5 8.41981C7.09 8.41981 6.75 8.07981 6.75 7.66981V6.68981C6.75 3.99981 8.92 1.51981 11.49 1.26981C12.99 1.12981 14.43 1.59981 15.53 2.60981C16.62 3.59981 17.25 5.01981 17.25 6.49981V7.87981C17.25 8.28981 16.91 8.62981 16.5 8.62981Z" fill="#292D32"/>
<path d="M15.0001 22.75H9.00006C4.38006 22.75 3.52006 20.6 3.30006 18.51L2.55006 12.52C2.44006 11.44 2.40006 9.89 3.45006 8.73C4.35006 7.73 5.84006 7.25 8.00006 7.25H16.0001C18.1701 7.25 19.6601 7.74 20.5501 8.73C21.5901 9.89 21.5601 11.44 21.4501 12.5L20.7001 18.51C20.4801 20.6 19.6201 22.75 15.0001 22.75ZM8.00006 8.75C6.31006 8.75 5.15006 9.08 4.56006 9.74C4.07006 10.28 3.91006 11.11 4.04006 12.35L4.79006 18.34C4.96006 19.94 5.40006 21.26 9.00006 21.26H15.0001C18.6001 21.26 19.0401 19.95 19.2101 18.36L19.9601 12.35C20.0901 11.13 19.9301 10.3 19.4401 9.75C18.8501 9.08 17.6901 8.75 16.0001 8.75H8.00006Z" fill="#292D32"/>
<path d="M15.4199 13.1499C14.8599 13.1499 14.4099 12.6999 14.4099 12.1499C14.4099 11.5999 14.8599 11.1499 15.4099 11.1499C15.9599 11.1499 16.4099 11.5999 16.4099 12.1499C16.4099 12.6999 15.9699 13.1499 15.4199 13.1499Z" fill="#292D32"/>
<path d="M8.41991 13.1499C7.85991 13.1499 7.40991 12.6999 7.40991 12.1499C7.40991 11.5999 7.85991 11.1499 8.40991 11.1499C8.95991 11.1499 9.40991 11.5999 9.40991 12.1499C9.40991 12.6999 8.96991 13.1499 8.41991 13.1499Z" fill="#292D32"/>
<g filter="url(#filter0_d_283_464)">
<circle cx="17" cy="13" r="8" fill="white"/>
<path d="M16.088 15.404V16H12.984V15.404H14.2V11.64C14.2 11.52 14.204 11.396 14.212 11.268L13.236 12.096C13.1987 12.1253 13.1613 12.144 13.124 12.152C13.0867 12.16 13.0507 12.1613 13.016 12.156C12.984 12.1507 12.9547 12.14 12.928 12.124C12.904 12.1053 12.884 12.0867 12.868 12.068L12.624 11.728L14.344 10.244H14.98V15.404H16.088ZM18.9526 15.412C19.1366 15.412 19.3033 15.3827 19.4526 15.324C19.602 15.2627 19.73 15.18 19.8366 15.076C19.9433 14.972 20.026 14.848 20.0846 14.704C20.1433 14.56 20.1726 14.404 20.1726 14.236C20.1726 14.052 20.1433 13.888 20.0846 13.744C20.0286 13.5973 19.9486 13.4733 19.8446 13.372C19.7433 13.2707 19.6206 13.1933 19.4766 13.14C19.3326 13.0867 19.1726 13.06 18.9966 13.06C18.8126 13.06 18.6473 13.092 18.5006 13.156C18.354 13.2173 18.2286 13.3013 18.1246 13.408C18.0206 13.512 17.9406 13.6347 17.8846 13.776C17.8286 13.9173 17.8006 14.0653 17.8006 14.22C17.8006 14.396 17.826 14.5573 17.8766 14.704C17.9273 14.8507 18.002 14.976 18.1006 15.08C18.1993 15.184 18.3193 15.2653 18.4606 15.324C18.6046 15.3827 18.7686 15.412 18.9526 15.412ZM18.5846 12.392C18.5393 12.4507 18.494 12.508 18.4486 12.564C18.406 12.6173 18.3646 12.6707 18.3246 12.724C18.4526 12.6413 18.594 12.5773 18.7486 12.532C18.906 12.4867 19.0753 12.464 19.2566 12.464C19.4833 12.464 19.6993 12.5013 19.9046 12.576C20.11 12.6507 20.29 12.76 20.4446 12.904C20.602 13.048 20.726 13.2267 20.8166 13.44C20.9073 13.6533 20.9526 13.8987 20.9526 14.176C20.9526 14.44 20.9046 14.688 20.8086 14.92C20.7126 15.1493 20.5766 15.3493 20.4006 15.52C20.2273 15.688 20.0193 15.8213 19.7766 15.92C19.534 16.016 19.2646 16.064 18.9686 16.064C18.6753 16.064 18.41 16.0173 18.1726 15.924C17.938 15.8307 17.7366 15.6987 17.5686 15.528C17.4033 15.3547 17.2753 15.1467 17.1846 14.904C17.094 14.6587 17.0486 14.3867 17.0486 14.088C17.0486 13.832 17.1033 13.5627 17.2126 13.28C17.3246 12.9947 17.5006 12.6907 17.7406 12.368L19.1766 10.444C19.2166 10.3907 19.2726 10.3467 19.3446 10.312C19.4166 10.2747 19.4993 10.256 19.5926 10.256H20.2886L18.5846 12.392Z" fill="#9D0302"/>
</g>
<defs>
<filter id="filter0_d_283_464" x="1" y="1" width="32" height="32" filterUnits="userSpaceOnUse" color-interpolation-filters="sRGB">
<feFlood flood-opacity="0" result="BackgroundImageFix"/>
<feColorMatrix in="SourceAlpha" type="matrix" values="0 0 0 0 0 0 0 0 0 0 0 0 0 0 0 0 0 0 127 0" result="hardAlpha"/>
<feOffset dy="4"/>
<feGaussianBlur stdDeviation="4"/>
<feComposite in2="hardAlpha" operator="out"/>
<feColorMatrix type="matrix" values="0 0 0 0 0 0 0 0 0 0 0 0 0 0 0 0 0 0 0.08 0"/>
<feBlend mode="normal" in2="BackgroundImageFix" result="effect1_dropShadow_283_464"/>
<feBlend mode="normal" in="SourceGraphic" in2="effect1_dropShadow_283_464" result="shape"/>
</filter>
</defs>
</svg>
