<svg width="35" height="34" viewBox="0 0 35 34" fill="none" xmlns="http://www.w3.org/2000/svg">
<path d="M19.213 0.333313C21.088 0.338313 22.0396 0.348313 22.8613 0.371646L23.1846 0.383313C23.558 0.396646 23.9263 0.413313 24.3713 0.433313C26.1446 0.516646 27.3546 0.796646 28.4163 1.20831C29.5163 1.63165 30.443 2.20498 31.3696 3.12998C32.2175 3.96287 32.8733 4.97077 33.2913 6.08331C33.703 7.14498 33.983 8.35498 34.0663 10.13C34.0863 10.5733 34.103 10.9416 34.1163 11.3166L34.1263 11.64C34.1513 12.46 34.1613 13.4116 34.1646 15.2866L34.1663 16.53V18.7133C34.1704 19.929 34.1576 21.1447 34.128 22.36L34.118 22.6833C34.1046 23.0583 34.088 23.4266 34.068 23.87C33.9846 25.645 33.7013 26.8533 33.2913 27.9166C32.8733 29.0292 32.2175 30.0371 31.3696 30.87C30.5368 31.7178 29.5289 32.3736 28.4163 32.7916C27.3546 33.2033 26.1446 33.4833 24.3713 33.5666L23.1846 33.6166L22.8613 33.6266C22.0396 33.65 21.088 33.6616 19.213 33.665L17.9696 33.6666H15.788C14.5717 33.6709 13.3555 33.6582 12.1396 33.6283L11.8163 33.6183C11.4207 33.6033 11.0251 33.5861 10.6296 33.5666C8.85631 33.4833 7.64631 33.2033 6.58298 32.7916C5.47103 32.3734 4.46372 31.7176 3.63131 30.87C2.78289 30.0373 2.12649 29.0293 1.70798 27.9166C1.29631 26.855 1.01631 25.645 0.932979 23.87L0.882979 22.6833L0.874646 22.36C0.843923 21.1447 0.830032 19.929 0.832979 18.7133V15.2866C0.828366 14.071 0.84059 12.8553 0.869646 11.64L0.881313 11.3166C0.894646 10.9416 0.911313 10.5733 0.931313 10.13C1.01465 8.35498 1.29465 7.14665 1.70631 6.08331C2.1258 4.97031 2.78335 3.96237 3.63298 3.12998C4.4649 2.28256 5.47162 1.62677 6.58298 1.20831C7.64631 0.796646 8.85464 0.516646 10.6296 0.433313C11.073 0.413313 11.443 0.396646 11.8163 0.383313L12.1396 0.373313C13.355 0.343701 14.5706 0.330922 15.7863 0.33498L19.213 0.333313ZM17.4996 8.66665C15.2895 8.66665 13.1699 9.54462 11.6071 11.1074C10.0443 12.6702 9.16631 14.7898 9.16631 17C9.16631 19.2101 10.0443 21.3297 11.6071 22.8925C13.1699 24.4553 15.2895 25.3333 17.4996 25.3333C19.7098 25.3333 21.8294 24.4553 23.3922 22.8925C24.955 21.3297 25.833 19.2101 25.833 17C25.833 14.7898 24.955 12.6702 23.3922 11.1074C21.8294 9.54462 19.7098 8.66665 17.4996 8.66665ZM17.4996 12C18.1563 11.9999 18.8065 12.1291 19.4131 12.3803C20.0198 12.6314 20.571 12.9996 21.0354 13.4639C21.4998 13.9281 21.8682 14.4792 22.1196 15.0858C22.3709 15.6924 22.5004 16.3425 22.5005 16.9991C22.5006 17.6558 22.3714 18.306 22.1202 18.9126C21.869 19.5193 21.5008 20.0706 21.0366 20.5349C20.5724 20.9993 20.0212 21.3677 19.4147 21.6191C18.8081 21.8704 18.1579 21.9999 17.5013 22C16.1752 22 14.9035 21.4732 13.9658 20.5355C13.0281 19.5978 12.5013 18.3261 12.5013 17C12.5013 15.6739 13.0281 14.4021 13.9658 13.4644C14.9035 12.5268 16.1752 12 17.5013 12M26.2513 6.16665C25.6988 6.16665 25.1689 6.38614 24.7782 6.77684C24.3875 7.16754 24.168 7.69744 24.168 8.24998C24.168 8.80251 24.3875 9.33242 24.7782 9.72312C25.1689 10.1138 25.6988 10.3333 26.2513 10.3333C26.8038 10.3333 27.3337 10.1138 27.7244 9.72312C28.1151 9.33242 28.3346 8.80251 28.3346 8.24998C28.3346 7.69744 28.1151 7.16754 27.7244 6.77684C27.3337 6.38614 26.8038 6.16665 26.2513 6.16665Z" fill="white"/>
</svg>
